<svg xmlns="http://www.w3.org/2000/svg" width="181" height="80" fill="none"><path fill="#000" fill-rule="evenodd" d="M33.907 51.118c-1.064.236-2.024.066-1.563-.567 1.615-2.07 3.415-3.474 5.71-4.598.585-.286 1.166-.58 1.82-.617.377-.022.61.084.15.523-1.033.17-1.487.703-1.362 1.6l-.62.88c-.856 1.214-2.765 2.476-4.135 2.78Zm138.238 3.94.823.041.799.123.773.198.74.271.704.34.664.403c.32.227.615.46.912.717.283.27.543.541.8.838.242.308.46.615.672.947l.372.684.306.723.235.757.161.786.083.812v.827l-.083.812-.161.787-.235.757-.306.722-.372.685-.433.642c-.242.308-.489.593-.759.876-.284.27-.568.517-.876.759l-.642.434-.685.372-.723.305-.757.236-.786.16-.812.083h-.827l-.812-.082-.786-.161-.757-.236-.723-.305-.685-.372c-.33-.212-.638-.43-.946-.673a12.122 12.122 0 0 1-.839-.8 11.959 11.959 0 0 1-.716-.911l-.404-.664-.339-.705-.271-.74-.199-.772-.122-.8-.042-.822.042-.823.122-.8.199-.772.271-.74.339-.704.404-.664c.227-.32.46-.616.716-.912.271-.285.543-.543.839-.8l.619-.463c.333-.213.661-.402 1.012-.581l.723-.306.756-.235.787-.161.811-.083.414-.01Zm0 1.102c.36.009.702.035 1.06.08.344.061.67.137 1.008.232.325.11.632.231.946.373.302.155.585.318.872.502.276.196.531.397.788.62.244.232.469.467.691.723.209.267.398.532.581.818.17.295.319.587.46.898.127.322.233.635.327.968.08.343.139.675.183 1.026.028.361.036.708.027 1.07-.027.354-.069.692-.132 1.043-.078.339-.169.659-.28.989a10.19 10.19 0 0 1-.418.923c-.169.294-.345.569-.542.846-.209.266-.422.511-.655.756-.245.234-.491.447-.757.656-.277.196-.551.373-.846.542-.305.156-.604.291-.923.417-.33.112-.65.202-.988.28a9.942 9.942 0 0 1-1.043.132c-.363.01-.708.001-1.07-.026-.35-.045-.682-.104-1.026-.183-.332-.095-.646-.2-.968-.327-.311-.14-.602-.29-.898-.46a10.226 10.226 0 0 1-.818-.582 10.197 10.197 0 0 1-.724-.69 10.306 10.306 0 0 1-.619-.788c-.184-.287-.347-.57-.502-.873a9.986 9.986 0 0 1-.373-.946 9.976 9.976 0 0 1-.232-1.008 10.17 10.17 0 0 1-.08-1.06c.009-.36.034-.702.08-1.058.061-.346.137-.672.232-1.008.111-.327.231-.633.373-.946.155-.304.319-.587.502-.873.197-.277.397-.532.619-.788.234-.246.469-.47.724-.69.267-.21.532-.399.817-.582.297-.17.588-.32.899-.46.322-.127.636-.233.968-.327.345-.08.677-.139 1.026-.183l.711-.036Zm-3.52 11.032V58.37h3.75c.943 0 1.627.08 2.054.238.427.158.77.44 1.027.844.257.407.384.869.384 1.39 0 .662-.195 1.21-.583 1.641-.388.43-.972.703-1.746.814.386.226.704.472.955.741.251.27.587.746 1.013 1.432l1.078 1.72h-2.13l-1.288-1.92c-.458-.686-.77-1.117-.938-1.295a1.385 1.385 0 0 0-.536-.368c-.189-.066-.487-.099-.898-.099h-.359v3.683h-1.783Zm1.783-5.092h1.316c.855 0 1.389-.035 1.602-.106a.962.962 0 0 0 .499-.374c.119-.177.181-.396.181-.662 0-.297-.08-.536-.238-.718-.158-.183-.382-.298-.672-.348-.144-.018-.577-.028-1.3-.028h-1.388V62.1ZM96.159 43.245c1.445 1.674-1.78 4.9-5.277 7.383-3.291 2.338-6.546 3.685-7.646 2.529-.824-1.203 1.995-5.326 5.387-7.873 2.858-2.145 6.376-3.223 7.536-2.039Zm38.606-8.241c-2.027.137-4.915.363-7.333.477 2.11-4.014 8.665-14.202 12.153-19.38a6.682 6.682 0 0 0 1.125-3.687c0-2.19-2.289-1.422-3.116-.384-3.476 4.363-12.978 20.918-14.16 23.668-2.561.127-6.585.337-9.218.521-2.689.227-2.059 4.894.667 4.355 2.757-.546 5.521-1.11 6.759-1.358l-.322.666c-4.794 5.198-11.725 12.503-17.898 15.823-1.536.826-4.708 2.236-4.53.508.094-.92 1.256-2.926 2.169-4.239 2.032-2.922 5.784-6.042 8.673-8.945 1.052-1.056 2.517-2.56 2.028-4.14-.471-1.525-1.544-1.897-2.731-1.918-.761-.013-1.57.118-2.298.182-2.752.243-5.326.474-8.098.702-.633.051-.877.314-1.082.792-3.323-.584-6.03.27-9.916 2.35-1.32.705-3.688 2.377-5.599 5.249-.767 1.153-1.536 2.58-2.012 3.843-.42 1.114-.596 2.103-.593 2.64.01 1.645.697 2.995 3.1 3.394.49.077.981.12 1.467.093 5.08-.273 11.726-6.86 14.571-11.381 1.664-.733 1.438-1.663 1.5-2.605l5.11-.506c-3.748 2.644-16.798 20.356-5.18 18.585 5.487-.837 14.091-9.871 19.281-16.28.244-.302.246-.348.075.024a251.984 251.984 0 0 0-6.668 15.855l.006-.046.005-.046.006-.046.006-.046.006-.045.006-.046.006-.047.006-.045.006-.046.006-.046.006-.046.006-.046.006-.046.006-.046.006-.046.006-.046.006-.046.006-.046.006-.046.006-.046.005-.046.006-.046.006-.045.006-.047.006-.045.006-.046.006-.046.006-.046.006-.046.006-.046.006-.046.006-.046.006-.046.006-.046.006-.046.006-.046.006-.046.006-.046.005-.046.006-.046.006-.046.006-.046.006-.046.006-.046.006-.046.006-.046.006-.046.006-.045.006-.046.006-.046.006-.046.006-.046.006-.046.006-.046.006-.046.006-.046.006-.046.006-.046.005-.046.006-.046.006-.046.006-.046.006-.046.006-.046c.129-.995-.655-.647-.9.016-.912 2.467-3 6.488-2.755 9.072.171 1.81 1.727 1.62 2.493.284 1.284-2.242 2.057-4.23 2.969-6.2 3.756-8.353 7.613-15.613 10.947-21.795 1.828-.395 2.951-.603 4.568-.911.41-.045.521-.17-.021.304-.354.31-.671.641-1.012.965-.217.235-.495.572-.834.97-1.71 2.016-5.976 8.96-2.03 10.825 5.703 2.696 12.691-4.824 16.476-8.67.812.46 2.412-1.608 3.37-1.65-1.211 2.75-2.185 5.105-2.272 6.278-.127 1.703 1.284 2.858 2.762 2.197 8.4-3.757 14.416-11.447 23.503-15.062-6.645 11.783-11.929 23.154-18.384 35.061-.56 1.034.66 1.369 1.119.59 6.874-11.658 12.685-22.871 19.6-34.479.558-.937 1.097-1.745 1.407-2.47.928-2.18-.575-3.082-2.315-2.975-1.936.119-4.256 1.51-6.454 2.637-5.916 3.411-9.875 6.714-15.714 10.475.862-1.475 2.382-4.328 4.464-6.214 2.71-2.456.989-5.167-.886-5.133-3.326.06-4.476 3.11-7.279 4.608-.244.13-.49.189-.725.244a4.558 4.558 0 0 0-.111-.45c-.56-1.786-1.565-2.237-4.504-2.143-1.846.06-3.851.754-5.786 1.662Zm-2.719 6.935c2.408-2.498 5.555-4.198 9.275-4.603l.001.017v.018l.001.018v.018l.001.018v.017l.001.018v.018l.001.018v.017l.001.018v.018l.001.018.001.017v.018l.001.018v.018l.001.018v.017l.001.018v.018l.001.018v.017l.001.018v.018l.001.018.001.017v.018l.001.018v.018l.001.017v.018l.001.018v.018l.001.017v.018l.001.018.001.018v.017l.001.018v.018l.001.018v.017l.001.018v.018l.001.018v.017l.001.018v.018l.001.018.001.018v.017l.001.018v.018l.001.017v.018l.001.018v.018l.001.018v.017l.001.018.001.018v.018l.001.017c.034 1.125.128 1.675.544 2.704-1.975 1.53-9.655 8.378-12.833 7.065-1.928-.796 2.209-5.503 2.979-6.302Zm-46.344-3.776c5.884-8.798 12.603-17.011 19.561-24.876 3.592-4.06 7.224-8.078 10.951-11.995.985-1.035-.119-1.84-1.119-.824C99.621 16.198 82.548 34.096 73.2 54.893c2.991-10.939 7.248-24.72 10.614-35.671 1.475-4.8-1.195-6.857-3.438-2.934-2.808 4.911-5.652 9.8-8.317 14.804-5.88 11.852-12.993 23.136-19.016 34.94-.862 1.69-2.037 3.1-2.366 4.306-.99 3.633 2.444 4.073 3.864 1.43L76.566 30.8c.681-1.467-1.26 5.78-3.84 15.1-2.507 9.063-5.2 18.077-7.709 27.133-.365 1.318-.686 2.727-.787 3.933-.213 2.542 1.236 3.738 2.497 2.606.757-.679 1.26-2.446 1.816-4.563 2.152-8.198 5.246-15.872 9.008-23.13a143.784 143.784 0 0 1 5.15-9.052c.97-1.574 1.974-3.128 3.001-4.664ZM13.29 62c4.833-2.741 9.448-6.584 13.175-10.845 2.118-2.422 4.982-6.139 3.656-6.873-1.174-.65-3.431.475-5.604 1.335-1.893.748-3.27 1.544-5.149 2.32L16.53 54.01c1.649-1.11 3.15-1.928 4.67-2.884.484-.067.903-.03.874.73-.065.14-.105.305-.22.389-2.57 1.877-4.243 3.05-7.032 5.271a104.3 104.3 0 0 1-1.163 2.291c-.836 1.6-2.486 2.303-1.931.695.064-.158.27-.755.33-.904-.714.584-4.53 3.808-4.855 4.217-.355.447 3.301-.237 6.086-1.814Zm55.63-29.242-5.909 2.534c-2.32 3.935-4.998 8.438-7.408 12.592-4.075 7.024-7.592 13.234-11.637 20.28-.309.54-.639 1.064-1.02 1.391-1.374 1.181-3.2 1.605-2.67-1.33.563-3.13 1.428-6.107 2.406-10.105.212-.869 1.454-.707 1.327.048l-1.08 6.454c4.363-7.843 7.774-13.771 11.892-21.17.239-.43.202-.38-.127-.112-2.026 1.655-4.181 3.35-6.13 5.088-3.016 2.688-6.238 5.578-8.148 5.88-1.057.168-1.426-1.022-1.29-2.423-2.043 2.315-7.943 5.024-10.1 1.744C25 58.504 17.944 64.233 11.676 66.26a29.873 29.873 0 0 1-3.198.846c-1.613.334-4.405.694-5.31-.506-.551-.833-.608-1.948.21-2.91 2.28-2.68 7.148-5.8 10.197-7.804l1.082-2.558 1.528-3.768c-4.752 2.634-9.627 5.658-14.307 8.7-1.06.69-1.682-.617-.143-1.756 5.509-4.41 11.786-7.822 15.763-11.29 1.546-1.445 2.65-4.562 4.621-8.807l1.878-4.122c-2.479-.73-4.758-.038-6.907 1.934-1.047.96-3.085 1.38-3.085-1.029.379-4.241 8.94-5.243 11.985-4.683l5.977-12.196c2.515-4.66 4.366-.862 3.495 1.365-1.828 3.938-4.545 7.958-6.498 11.822 1.92.777 2.712 2.736 2.334 4.75-.39 2.077-1.883 3.976-3.056 5.598 2.366-.14 5.326-.54 5.443 3.958 2.11-.705 9.24-5.692 10.792-.813.58 1.823-.543 4.798-2.612 6.231l-.01 1.74c4.779-3.592 9.739-7.11 14.547-10.495.53-.953 1.063-1.914 1.602-2.887a63.94 63.94 0 0 0-2.912 1.7c-1.882 1.173-4.638 3.94-6.766 3.616-1.376-.21-2.551-2.41-.598-3.914 2.552-1.965 9.973-5.055 12.92-6.007l11.74-20.955c1.287-2.297 5.14-.61 3.23 2.341-2.347 3.794-10.822 17.668-10.616 17.668 1.097-.242 3.414-.694 4.512-.936 1.83-.422.842 1.159-.594 1.665Zm-41.872.402c-1.315 2.376-2.648 4.934-3.925 7.426-.15.29 3.68-1.43 4.473-5.197.18-.852.153-1.645-.548-2.229Z" clip-rule="evenodd"/></svg>